{"accessors" : [{"bufferView" : 0, "byteOffset" : 0, "componentType" : 5123, "count" : 23388, "type" : "SCALAR", "max" : [19595], "min" : [0]}, {"bufferView" : 1, "byteOffset" : 0, "componentType" : 5126, "count" : 19596, "type" : "VEC3", "max" : [80.85259246826172, 365.78057861328125, 115.12755584716797], "min" : [-90.05979919433594, -178.3505859375, -0.006917869672179222], "name" : "POSITION"}, {"bufferView" : 1, "byteOffset" : 12, "componentType" : 5126, "count" : 19596, "type" : "VEC2", "max" : [1, 1], "min" : [0.4377915859222412, 0], "name" : "TEXCOORD_0"}, {"bufferView" : 0, "byteOffset" : 46776, "componentType" : 5123, "count" : 24, "type" : "SCALAR", "max" : [22], "min" : [0]}, {"bufferView" : 2, "byteOffset" : 0, "componentType" : 5126, "count" : 23, "type" : "VEC3", "max" : [41.23699188232422, 252.4886016845703, 114.10978698730469], "min" : [-50.44417190551758, 243.8482666015625, 113.63966369628906], "name" : "POSITION"}, {"bufferView" : 2, "byteOffset" : 12, "componentType" : 5126, "count" : 23, "type" : "VEC2", "max" : [0.7753604650497437, 0.3877738118171692], "min" : [0.5284707546234131, 0.3567402958869934], "name" : "TEXCOORD_0"}], "asset" : {"generator" : "Aspose.3D 24.1.0", "version" : "2.0"}, "buffers" : [{"uri" : "data:application/octet-stream;base64,", "byteLength" : 515076}], "bufferViews" : [{"buffer" : 0, "byteOffset" : 0, "byteLength" : 46824, "target" : 34963}, {"buffer" : 0, "byteOffset" : 46828, "byteLength" : 467760, "byteStride" : 20, "target" : 34962}, {"buffer" : 0, "byteOffset" : 514592, "byteLength" : 480, "byteStride" : 20, "target" : 34962}], "materials" : [{"name" : "chair2", "pbrMetallicRoughness" : {"baseColorFactor" : [0.9725490196078431, 0.9725490196078431, 0.9725490196078431, 1], "metallicFactor" : 1, "roughnessFactor" : 1}, "emissiveFactor" : [0, 0, 0], "alphaMode" : "OPAQUE", "doubleSided" : false}, {"name" : "chair5", "pbrMetallicRoughness" : {"baseColorFactor" : [0, 0, 0, 1], "metallicFactor" : 1, "roughnessFactor" : 1}, "emissiveFactor" : [0, 0, 0], "alphaMode" : "OPAQUE", "doubleSided" : false}], "meshes" : [{"primitives" : [{"attributes" : {"POSITION" : 1, "TEXCOORD_0" : 2}, "indices" : 0, "material" : 0, "mode" : 4}, {"attributes" : {"POSITION" : 4, "TEXCOORD_0" : 5}, "indices" : 3, "material" : 1, "mode" : 4}], "name" : "Object02"}], "nodes" : [{"matrix" : [-1.1238754987716675, -6.698819277062285E-08, 0, 0, -5.960463056453591E-08, 0.9999998807907104, -4.371138473402425E-08, 0, 2.6054013479537112E-15, -4.371138473402425E-08, -0.9999998807907104, 0, 2.1400741178299227E-22, 0, -1.1852246643684339E-05, 1], "mesh" : 0, "name" : "Object02"}], "scene" : 0, "scenes" : [{"nodes" : [0]}]}