{"accessors" : [{"bufferView" : 0, "byteOffset" : 0, "componentType" : 5123, "count" : 9108, "type" : "SCALAR", "max" : [9106], "min" : [0]}, {"bufferView" : 1, "byteOffset" : 0, "componentType" : 5126, "count" : 9107, "type" : "VEC3", "max" : [22.05763816833496, 280.2353515625, 132.16586303710938], "min" : [-20.77444076538086, -279.6186828613281, -317.93670654296875], "name" : "POSITION"}, {"bufferView" : 1, "byteOffset" : 12, "componentType" : 5126, "count" : 9107, "type" : "VEC2", "max" : [1, 1], "min" : [0, 0], "name" : "TEXCOORD_0"}, {"bufferView" : 0, "byteOffset" : 18216, "componentType" : 5123, "count" : 672, "type" : "SCALAR", "max" : [557], "min" : [0]}, {"bufferView" : 2, "byteOffset" : 0, "componentType" : 5126, "count" : 558, "type" : "VEC3", "max" : [239.69395446777344, 306.0925598144531, 15.344193458557129], "min" : [-320.890625, -306.092529296875, -21.872314453125], "name" : "POSITION"}, {"bufferView" : 0, "byteOffset" : 19560, "componentType" : 5123, "count" : 6576, "type" : "SCALAR", "max" : [5241], "min" : [0]}, {"bufferView" : 3, "byteOffset" : 0, "componentType" : 5126, "count" : 5242, "type" : "VEC3", "max" : [192.48155212402344, 585.8970336914062, 319.07916259765625], "min" : [-326.7198791503906, 87.82907104492188, -128.53390502929688], "name" : "POSITION"}, {"bufferView" : 3, "byteOffset" : 12, "componentType" : 5126, "count" : 5242, "type" : "VEC2", "max" : [0.9995003938674927, 0.9995005130767822], "min" : [0.0004996061325073242, 0.0004996061325073242], "name" : "TEXCOORD_0"}, {"bufferView" : 0, "byteOffset" : 32712, "componentType" : 5123, "count" : 52416, "type" : "SCALAR", "max" : [45634], "min" : [0]}, {"bufferView" : 4, "byteOffset" : 0, "componentType" : 5126, "count" : 45635, "type" : "VEC3", "max" : [691.2589111328125, 29.85225486755371, 60.5508918762207], "min" : [-37.47794723510742, -445.6430969238281, -358.31475830078125], "name" : "POSITION"}, {"bufferView" : 4, "byteOffset" : 12, "componentType" : 5126, "count" : 45635, "type" : "VEC2", "max" : [411.36279296875, 1], "min" : [0, -22.863536834716797], "name" : "TEXCOORD_0"}, {"bufferView" : 0, "byteOffset" : 137544, "componentType" : 5123, "count" : 22848, "type" : "SCALAR", "max" : [19684], "min" : [0]}, {"bufferView" : 5, "byteOffset" : 0, "componentType" : 5126, "count" : 19685, "type" : "VEC3", "max" : [283.95294189453125, 127.48023986816406, 413.6180725097656], "min" : [-292.15869140625, -74.74038696289062, -212.6234130859375], "name" : "POSITION"}, {"bufferView" : 5, "byteOffset" : 12, "componentType" : 5126, "count" : 19685, "type" : "VEC2", "max" : [1.0723121166229248, 1.1104824542999268], "min" : [-0.07042950391769409, -0.11048245429992676], "name" : "TEXCOORD_0"}, {"bufferView" : 0, "byteOffset" : 183240, "componentType" : 5123, "count" : 2400, "type" : "SCALAR", "max" : [2097], "min" : [0]}, {"bufferView" : 6, "byteOffset" : 0, "componentType" : 5126, "count" : 2098, "type" : "VEC3", "max" : [693.856689453125, 49.812740325927734, 599.868408203125], "min" : [-49.81272888183594, -702.2952270507812, 0], "name" : "POSITION"}, {"bufferView" : 6, "byteOffset" : 12, "componentType" : 5126, "count" : 2098, "type" : "VEC2", "max" : [1, 1], "min" : [0, 0], "name" : "TEXCOORD_0"}, {"bufferView" : 0, "byteOffset" : 188040, "componentType" : 5123, "count" : 192, "type" : "SCALAR", "max" : [157], "min" : [0]}, {"bufferView" : 7, "byteOffset" : 0, "componentType" : 5126, "count" : 158, "type" : "VEC3", "max" : [320.890625, 306.092529296875, 15.344207763671875], "min" : [-320.890625, -306.092529296875, -15.344207763671875], "name" : "POSITION"}], "asset" : {"generator" : "Aspose.3D 24.1.0", "version" : "2.0"}, "buffers" : [{"uri" : "data:application/octet-stream;base64,", "byteLength" : 2065784}], "bufferViews" : [{"buffer" : 0, "byteOffset" : 0, "byteLength" : 188424, "target" : 34963}, {"buffer" : 0, "byteOffset" : 188428, "byteLength" : 182160, "byteStride" : 20, "target" : 34962}, {"buffer" : 0, "byteOffset" : 370592, "byteLength" : 8064, "byteStride" : 12, "target" : 34962}, {"buffer" : 0, "byteOffset" : 378660, "byteLength" : 131520, "byteStride" : 20, "target" : 34962}, {"buffer" : 0, "byteOffset" : 510184, "byteLength" : 1048320, "byteStride" : 20, "target" : 34962}, {"buffer" : 0, "byteOffset" : 1558508, "byteLength" : 456960, "byteStride" : 20, "target" : 34962}, {"buffer" : 0, "byteOffset" : 2015472, "byteLength" : 48000, "byteStride" : 20, "target" : 34962}, {"buffer" : 0, "byteOffset" : 2063476, "byteLength" : 2304, "byteStride" : 12, "target" : 34962}], "materials" : [{"name" : "Material #366444", "pbrMetallicRoughness" : {"baseColorFactor" : [0.4980392156862745, 0.4980392156862745, 0.4980392156862745, 1], "metallicFactor" : 1, "roughnessFactor" : 1}, "emissiveFactor" : [0, 0, 0], "alphaMode" : "OPAQUE", "doubleSided" : false}, {"name" : "Material #3661", "pbrMetallicRoughness" : {"baseColorFactor" : [0.4980392156862745, 0.4980392156862745, 0.4980392156862745, 1], "metallicFactor" : 1, "roughnessFactor" : 1}, "emissiveFactor" : [0, 0, 0], "alphaMode" : "OPAQUE", "doubleSided" : false}, {"name" : "Material #210044", "pbrMetallicRoughness" : {"baseColorFactor" : [0, 0.23137254901960785, 0.5803921568627451, 1], "metallicFactor" : 1, "roughnessFactor" : 1}, "emissiveFactor" : [0, 0, 0], "alphaMode" : "OPAQUE", "doubleSided" : false}, {"name" : "textile pol", "pbrMetallicRoughness" : {"baseColorFactor" : [0.8313725490196079, 0.7333333333333333, 0.6039215686274509, 1], "metallicFactor" : 1, "roughnessFactor" : 1}, "emissiveFactor" : [0, 0, 0], "alphaMode" : "OPAQUE", "doubleSided" : false}, {"name" : "Material #210044", "pbrMetallicRoughness" : {"baseColorFactor" : [0, 0.23137254901960785, 0.5803921568627451, 1], "metallicFactor" : 1, "roughnessFactor" : 1}, "emissiveFactor" : [0, 0, 0], "alphaMode" : "OPAQUE", "doubleSided" : false}, {"name" : "Material #3661", "pbrMetallicRoughness" : {"baseColorFactor" : [0.4980392156862745, 0.4980392156862745, 0.4980392156862745, 1], "metallicFactor" : 1, "roughnessFactor" : 1}, "emissiveFactor" : [0, 0, 0], "alphaMode" : "OPAQUE", "doubleSided" : false}, {"name" : "Material #3661", "pbrMetallicRoughness" : {"baseColorFactor" : [0.4980392156862745, 0.4980392156862745, 0.4980392156862745, 1], "metallicFactor" : 1, "roughnessFactor" : 1}, "emissiveFactor" : [0, 0, 0], "alphaMode" : "OPAQUE", "doubleSided" : false}], "meshes" : [{"primitives" : [{"attributes" : {"POSITION" : 1, "TEXCOORD_0" : 2}, "indices" : 0, "material" : 0, "mode" : 4}], "name" : "Line53"}, {"primitives" : [{"attributes" : {"POSITION" : 4}, "indices" : 3, "material" : 1, "mode" : 4}], "name" : "Rectangle2"}, {"primitives" : [{"attributes" : {"POSITION" : 6, "TEXCOORD_0" : 7}, "indices" : 5, "material" : 2, "mode" : 4}], "name" : "pod"}, {"primitives" : [{"attributes" : {"POSITION" : 9, "TEXCOORD_0" : 10}, "indices" : 8, "material" : 3, "mode" : 4}], "name" : "Rectangle0"}, {"primitives" : [{"attributes" : {"POSITION" : 12, "TEXCOORD_0" : 13}, "indices" : 11, "material" : 4, "mode" : 4}], "name" : "Box12"}, {"primitives" : [{"attributes" : {"POSITION" : 15, "TEXCOORD_0" : 16}, "indices" : 14, "material" : 5, "mode" : 4}], "name" : "Cylinder65"}, {"primitives" : [{"attributes" : {"POSITION" : 18}, "indices" : 17, "material" : 6, "mode" : 4}], "name" : "Rectangle1"}], "nodes" : [{"matrix" : [0.5414063334465027, 0.22254428267478943, -0.7437414526939392, 0, -0.7628725171089172, 6.573571909029852E-09, -0.5553325414657593, 0, -0.12358609586954117, 0.9749228358268738, 0.1697729229927063, 0, -153.159912109375, 610.368408203125, 210.782958984375, 1], "mesh" : 0, "name" : "Line53"}, {"matrix" : [-0.12358930706977844, 0.9749224781990051, 0.16977664828300476, 0, -0.6893781423568726, -1.9281667107406975E-07, -0.5018334984779358, 0, -0.5414066910743713, -0.22254906594753265, 0.7437406778335571, 0, -147.0908203125, 548.973876953125, 202.061767578125, 1], "mesh" : 1, "name" : "Rectangle2"}, {"matrix" : [0.1057664081454277, -0.003963403403759003, 0.07502180337905884, 0, 0.09918542206287384, 0.02404479682445526, -0.13702523708343506, 0, 0.027274928987026215, -0.16649256646633148, -0.04416236653923988, 0, -85.08544921875, 577.4429931640625, 135.12158203125, 1], "mesh" : 2, "name" : "pod"}, {"matrix" : [-0.7628725171089172, 0, -0.5553324222564697, 0, 2.3619993783086102E-07, 1, -3.2447309195049456E-07, 0, 0.5553324222564697, -3.7870108826609794E-07, -0.7628725171089172, 0, 330.58795166015625, 543.7467041015625, 63.30126953125, 1], "mesh" : 3, "name" : "Rectangle0"}, {"matrix" : [0.5550041794776917, 0.013682655990123749, -0.7624208927154541, 0, 0.004173485096544027, 0.760709285736084, -0.005732416175305843, 0, 0.6759711503982544, -5.606217428066884E-07, 0.49207356572151184, 0, 61.47412109375, 285.126953125, -75.305908203125, 1], "mesh" : 4, "name" : "Box12"}, {"matrix" : [0.555332601070404, 0, -0.7628724575042725, 0, -0.7628724575042725, 0, -0.555332601070404, 0, 0, 1, 0, 0, -427.709716796875, 10.378387451171875, 64.4892578125, 1], "mesh" : 5, "name" : "Cylinder65"}, {"matrix" : [0.5553326606750488, 0, -0.7628725171089172, 0, -0.6893783807754517, 0, -0.5018326044082642, 0, 0, 1, 0, 0, 0.000732421875, 233.3365478515625, -0.0008544921875, 1], "mesh" : 6, "name" : "Rectangle1"}], "scene" : 0, "scenes" : [{"nodes" : [0, 1, 2, 3, 4, 5, 6]}]}