{"accessors" : [{"bufferView" : 0, "byteOffset" : 0, "componentType" : 5123, "count" : 2178, "type" : "SCALAR", "max" : [1823], "min" : [0]}, {"bufferView" : 1, "byteOffset" : 0, "componentType" : 5126, "count" : 1824, "type" : "VEC3", "max" : [414.2973937988281, 42.936100006103516, 613.2465209960938], "min" : [392.3505859375, 26.171100616455078, 582.6195068359375], "name" : "POSITION"}, {"bufferView" : 0, "byteOffset" : 4356, "componentType" : 5123, "count" : 2178, "type" : "SCALAR", "max" : [1823], "min" : [0]}, {"bufferView" : 2, "byteOffset" : 0, "componentType" : 5126, "count" : 1824, "type" : "VEC3", "max" : [414.2973937988281, 42.936100006103516, 494.1632995605469], "min" : [392.3505859375, 26.171100616455078, 463.5362854003906], "name" : "POSITION"}, {"bufferView" : 0, "byteOffset" : 8712, "componentType" : 5123, "count" : 2178, "type" : "SCALAR", "max" : [1823], "min" : [0]}, {"bufferView" : 3, "byteOffset" : 0, "componentType" : 5126, "count" : 1824, "type" : "VEC3", "max" : [414.2973937988281, 42.936100006103516, 328.33349609375], "min" : [392.3505859375, 26.171100616455078, 297.7065124511719], "name" : "POSITION"}, {"bufferView" : 0, "byteOffset" : 13068, "componentType" : 5123, "count" : 2160, "type" : "SCALAR", "max" : [1789], "min" : [0]}, {"bufferView" : 4, "byteOffset" : 0, "componentType" : 5126, "count" : 1790, "type" : "VEC3", "max" : [737.6505126953125, 57.50469970703125, 664.0142822265625], "min" : [68.99729919433594, 42.936500549316406, 212.172607421875], "name" : "POSITION"}, {"bufferView" : 4, "byteOffset" : 12, "componentType" : 5126, "count" : 1790, "type" : "VEC2", "max" : [0.9994999766349792, 0.9994999766349792], "min" : [0.0005000000237487257, 0.000500023365020752], "name" : "TEXCOORD_0"}, {"bufferView" : 0, "byteOffset" : 17388, "componentType" : 5123, "count" : 10794, "type" : "SCALAR", "max" : [9637], "min" : [0]}, {"bufferView" : 5, "byteOffset" : 0, "componentType" : 5126, "count" : 9638, "type" : "VEC3", "max" : [784.323974609375, 596.94677734375, 700.4835815429688], "min" : [22.323999404907227, 37.9463996887207, 0], "name" : "POSITION"}, {"bufferView" : 5, "byteOffset" : 12, "componentType" : 5126, "count" : 9638, "type" : "VEC2", "max" : [1.0654000043869019, 1.0197999477386475], "min" : [-0.06539999693632126, -0.01979994773864746], "name" : "TEXCOORD_0"}], "asset" : {"generator" : "Aspose.3D 24.1.0", "version" : "2.0"}, "buffers" : [{"uri" : "data:application/octet-stream;base64,", "byteLength" : 376488}], "bufferViews" : [{"buffer" : 0, "byteOffset" : 0, "byteLength" : 38976, "target" : 34963}, {"buffer" : 0, "byteOffset" : 38980, "byteLength" : 26136, "byteStride" : 12, "target" : 34962}, {"buffer" : 0, "byteOffset" : 65120, "byteLength" : 26136, "byteStride" : 12, "target" : 34962}, {"buffer" : 0, "byteOffset" : 91260, "byteLength" : 26136, "byteStride" : 12, "target" : 34962}, {"buffer" : 0, "byteOffset" : 117400, "byteLength" : 43200, "byteStride" : 20, "target" : 34962}, {"buffer" : 0, "byteOffset" : 160604, "byteLength" : 215880, "byteStride" : 20, "target" : 34962}], "images" : [{"uri" : "bakr-221.png"}], "materials" : [{"name" : "Chrome", "pbrMetallicRoughness" : {"baseColorFactor" : [0.7254901960784313, 0.7254901960784313, 0.7254901960784313, 1], "metallicFactor" : 1, "roughnessFactor" : 1}, "emissiveFactor" : [0, 0, 0], "alphaMode" : "OPAQUE", "doubleSided" : false}, {"name" : "Chrome", "pbrMetallicRoughness" : {"baseColorFactor" : [0.7254901960784313, 0.7254901960784313, 0.7254901960784313, 1], "metallicFactor" : 1, "roughnessFactor" : 1}, "emissiveFactor" : [0, 0, 0], "alphaMode" : "OPAQUE", "doubleSided" : false}, {"name" : "Chrome", "pbrMetallicRoughness" : {"baseColorFactor" : [0.7254901960784313, 0.7254901960784313, 0.7254901960784313, 1], "metallicFactor" : 1, "roughnessFactor" : 1}, "emissiveFactor" : [0, 0, 0], "alphaMode" : "OPAQUE", "doubleSided" : false}, {"name" : "Wood", "pbrMetallicRoughness" : {"baseColorFactor" : [1, 1, 1, 1], "baseColorTexture" : {"index" : 0, "texCoord" : 0}, "metallicFactor" : 1, "roughnessFactor" : 1}, "emissiveFactor" : [0, 0, 0], "alphaMode" : "OPAQUE", "doubleSided" : false}, {"name" : "Wood_Plastic", "pbrMetallicRoughness" : {"baseColorFactor" : [0.9411764705882353, 0.9137254901960784, 0.8196078431372549, 1], "metallicFactor" : 1, "roughnessFactor" : 1}, "emissiveFactor" : [0, 0, 0], "alphaMode" : "OPAQUE", "doubleSided" : false}], "meshes" : [{"primitives" : [{"attributes" : {"POSITION" : 1}, "indices" : 0, "material" : 0, "mode" : 4}], "name" : "ruchka_23"}, {"primitives" : [{"attributes" : {"POSITION" : 3}, "indices" : 2, "material" : 1, "mode" : 4}], "name" : "ruchka_024"}, {"primitives" : [{"attributes" : {"POSITION" : 5}, "indices" : 4, "material" : 2, "mode" : 4}], "name" : "ruchka_025"}, {"primitives" : [{"attributes" : {"POSITION" : 7, "TEXCOORD_0" : 8}, "indices" : 6, "material" : 3, "mode" : 4}], "name" : "Object6118"}, {"primitives" : [{"attributes" : {"POSITION" : 10, "TEXCOORD_0" : 11}, "indices" : 9, "material" : 4, "mode" : 4}], "name" : "Rectangle4"}], "nodes" : [{"matrix" : [-1, 0, 0, 0, 0, 0, 1, 0, 0, 1, 0, 0, 0, 0, 0, 1], "mesh" : 0, "name" : "ruchka_23"}, {"matrix" : [-1, 0, 0, 0, 0, 0, 1, 0, 0, 1, 0, 0, 0, 0, 0, 1], "mesh" : 1, "name" : "ruchka_024"}, {"matrix" : [-1, 0, 0, 0, 0, 0, 1, 0, 0, 1, 0, 0, 0, 0, 0, 1], "mesh" : 2, "name" : "ruchka_025"}, {"matrix" : [-1, 0, 0, 0, 0, 0, 1, 0, 0, 1, 0, 0, 0, 0, 0, 1], "mesh" : 3, "name" : "Object6118"}, {"matrix" : [-1, 0, 0, 0, 0, 0, 1, 0, 0, 1, 0, 0, 0, 0, 0, 1], "mesh" : 4, "name" : "Rectangle4"}], "samplers" : [{"magFilter" : 9729, "minFilter" : 9729, "wrapS" : 10497, "wrapT" : 10497}], "scene" : 0, "scenes" : [{"nodes" : [0, 1, 2, 3, 4]}], "textures" : [{"sampler" : 0, "source" : 0, "name" : ""}]}