{"accessors" : [{"bufferView" : 0, "byteOffset" : 0, "componentType" : 5123, "count" : 2070, "type" : "SCALAR", "max" : [1719], "min" : [0]}, {"bufferView" : 1, "byteOffset" : 0, "componentType" : 5126, "count" : 1720, "type" : "VEC3", "max" : [-17.1884708404541, -22.045700073242188, 304.6399230957031], "min" : [-326.19940185546875, -407.123779296875, -122.96197509765625], "name" : "POSITION"}, {"bufferView" : 1, "byteOffset" : 12, "componentType" : 5126, "count" : 1720, "type" : "VEC2", "max" : [1.081674337387085, 0.972099244594574], "min" : [-0.019630789756774902, 0.03386342525482178], "name" : "TEXCOORD_0"}, {"bufferView" : 0, "byteOffset" : 4140, "componentType" : 5123, "count" : 306, "type" : "SCALAR", "max" : [269], "min" : [0]}, {"bufferView" : 2, "byteOffset" : 0, "componentType" : 5126, "count" : 270, "type" : "VEC3", "max" : [-75.92232513427734, -22.103988647460938, 219.8401336669922], "min" : [-285.0606384277344, -56.67100524902344, -62.505104064941406], "name" : "POSITION"}, {"bufferView" : 2, "byteOffset" : 12, "componentType" : 5126, "count" : 270, "type" : "VEC2", "max" : [0.9630272388458252, 0.1933152675628662], "min" : [0.03625565767288208, 0.03386342525482178], "name" : "TEXCOORD_0"}, {"bufferView" : 0, "byteOffset" : 4752, "componentType" : 5123, "count" : 2070, "type" : "SCALAR", "max" : [1719], "min" : [0]}, {"bufferView" : 3, "byteOffset" : 0, "componentType" : 5126, "count" : 1720, "type" : "VEC3", "max" : [431.8035888671875, 321.0001220703125, 57.000022888183594], "min" : [-421.9891357421875, -323.53277587890625, -3.8907164707779884E-05], "name" : "POSITION"}, {"bufferView" : 3, "byteOffset" : 12, "componentType" : 5126, "count" : 1720, "type" : "VEC2", "max" : [1.0182512998580933, 0.9720991849899292], "min" : [-0.08167451620101929, 0.11637020111083984], "name" : "TEXCOORD_0"}, {"bufferView" : 0, "byteOffset" : 8892, "componentType" : 5123, "count" : 306, "type" : "SCALAR", "max" : [269], "min" : [0]}, {"bufferView" : 4, "byteOffset" : 0, "componentType" : 5126, "count" : 270, "type" : "VEC3", "max" : [305.5393371582031, 320.9025573730469, 57.00000762939453], "min" : [-243.8170623779297, 263.0452880859375, -2.4420338377240114E-05], "name" : "POSITION"}, {"bufferView" : 4, "byteOffset" : 12, "componentType" : 5126, "count" : 270, "type" : "VEC2", "max" : [0.9637441635131836, 0.9661366939544678], "min" : [0.03697296977043152, 0.11649972200393677], "name" : "TEXCOORD_0"}, {"bufferView" : 0, "byteOffset" : 9504, "componentType" : 5123, "count" : 114, "type" : "SCALAR", "max" : [103], "min" : [0]}, {"bufferView" : 5, "byteOffset" : 0, "componentType" : 5126, "count" : 104, "type" : "VEC3", "max" : [365.5318603515625, 478.185791015625, 57.00001907348633], "min" : [302.1956787109375, 358.490478515625, -7.331254959106445], "name" : "POSITION"}, {"bufferView" : 5, "byteOffset" : 12, "componentType" : 5126, "count" : 104, "type" : "VEC2", "max" : [1.005791425704956, 0.27797555923461914], "min" : [-0.0071070194244384766, 0.10887837409973145], "name" : "TEXCOORD_0"}, {"bufferView" : 0, "byteOffset" : 9732, "componentType" : 5123, "count" : 30, "type" : "SCALAR", "max" : [29], "min" : [0]}, {"bufferView" : 6, "byteOffset" : 0, "componentType" : 5126, "count" : 30, "type" : "VEC3", "max" : [304.85675048828125, 477.1545715332031, 57.0000114440918], "min" : [-175.17845153808594, 419.4272155761719, -7.331340789794922], "name" : "POSITION"}, {"bufferView" : 6, "byteOffset" : 12, "componentType" : 5126, "count" : 30, "type" : "VEC2", "max" : [1.005212426185608, 0.810459554195404], "min" : [-0.00521242618560791, 0.11847138404846191], "name" : "TEXCOORD_0"}, {"bufferView" : 0, "byteOffset" : 9792, "componentType" : 5123, "count" : 114, "type" : "SCALAR", "max" : [103], "min" : [0]}, {"bufferView" : 7, "byteOffset" : 0, "componentType" : 5126, "count" : 104, "type" : "VEC3", "max" : [394.2824401855469, 224.97415161132812, -62.45979309082031], "min" : [340.0719909667969, 150.4320526123047, -115.17345428466797], "name" : "POSITION"}, {"bufferView" : 7, "byteOffset" : 12, "componentType" : 5126, "count" : 104, "type" : "VEC2", "max" : [1.0071072578430176, 0.8919330835342407], "min" : [-0.003417670726776123, 0.11710262298583984], "name" : "TEXCOORD_0"}, {"bufferView" : 0, "byteOffset" : 10020, "componentType" : 5123, "count" : 30, "type" : "SCALAR", "max" : [29], "min" : [0]}, {"bufferView" : 8, "byteOffset" : 0, "componentType" : 5126, "count" : 30, "type" : "VEC3", "max" : [304.85675048828125, 477.15460205078125, 57], "min" : [-175.178466796875, 419.4272155761719, -7.331350326538086], "name" : "POSITION"}, {"bufferView" : 8, "byteOffset" : 12, "componentType" : 5126, "count" : 30, "type" : "VEC2", "max" : [1.019630789756775, 0.8104597926139832], "min" : [-0.019630789756774902, 0.11773926019668579], "name" : "TEXCOORD_0"}, {"bufferView" : 0, "byteOffset" : 10080, "componentType" : 5123, "count" : 114, "type" : "SCALAR", "max" : [103], "min" : [0]}, {"bufferView" : 9, "byteOffset" : 0, "componentType" : 5126, "count" : 104, "type" : "VEC3", "max" : [365.5318298339844, 478.185791015625, 56.999996185302734], "min" : [302.1956787109375, 358.490478515625, -7.3312482833862305], "name" : "POSITION"}, {"bufferView" : 9, "byteOffset" : 12, "componentType" : 5126, "count" : 104, "type" : "VEC2", "max" : [1.019630789756775, 0.2752864360809326], "min" : [-0.019630789756774902, 0.10887861251831055], "name" : "TEXCOORD_0"}, {"bufferView" : 0, "byteOffset" : 10308, "componentType" : 5123, "count" : 114, "type" : "SCALAR", "max" : [103], "min" : [0]}, {"bufferView" : 10, "byteOffset" : 0, "componentType" : 5126, "count" : 104, "type" : "VEC3", "max" : [163.78268432617188, 227.8916473388672, -394.44769287109375], "min" : [111.66177368164062, 156.3793182373047, -446.9835510253906], "name" : "POSITION"}, {"bufferView" : 10, "byteOffset" : 12, "componentType" : 5126, "count" : 104, "type" : "VEC2", "max" : [1.0196306705474854, 0.8919333219528198], "min" : [-0.01963067054748535, 0.11637020111083984], "name" : "TEXCOORD_0"}, {"bufferView" : 0, "byteOffset" : 10536, "componentType" : 5123, "count" : 216, "type" : "SCALAR", "max" : [147], "min" : [0]}, {"bufferView" : 11, "byteOffset" : 0, "componentType" : 5126, "count" : 148, "type" : "VEC3", "max" : [-288.7279968261719, -403.90289306640625, -83.84945678710938], "min" : [-314.8408203125, -411.38189697265625, -109.99850463867188], "name" : "POSITION"}, {"bufferView" : 11, "byteOffset" : 12, "componentType" : 5126, "count" : 148, "type" : "VEC2", "max" : [0.9722222089767456, 1], "min" : [-0.027777791023254395, 5.960464477539063E-08], "name" : "TEXCOORD_0"}, {"bufferView" : 0, "byteOffset" : 10968, "componentType" : 5123, "count" : 9504, "type" : "SCALAR", "max" : [8167], "min" : [0]}, {"bufferView" : 12, "byteOffset" : 0, "componentType" : 5126, "count" : 8168, "type" : "VEC3", "max" : [331.8041076660156, 274.8548278808594, 421.0000915527344], "min" : [-216.9048309326172, -159.22119140625, -1.5156972040131222E-05], "name" : "POSITION"}, {"bufferView" : 12, "byteOffset" : 12, "componentType" : 5126, "count" : 8168, "type" : "VEC2", "max" : [1.177830457687378, 1.0416545867919922], "min" : [-0.1778305172920227, -0.03817582130432129], "name" : "TEXCOORD_0"}], "asset" : {"generator" : "Aspose.3D 24.1.0", "version" : "2.0"}, "buffers" : [{"uri" : "data:application/octet-stream;base64,", "byteLength" : 329788}], "bufferViews" : [{"buffer" : 0, "byteOffset" : 0, "byteLength" : 29976, "target" : 34963}, {"buffer" : 0, "byteOffset" : 29980, "byteLength" : 41400, "byteStride" : 20, "target" : 34962}, {"buffer" : 0, "byteOffset" : 71384, "byteLength" : 6120, "byteStride" : 20, "target" : 34962}, {"buffer" : 0, "byteOffset" : 77508, "byteLength" : 41400, "byteStride" : 20, "target" : 34962}, {"buffer" : 0, "byteOffset" : 118912, "byteLength" : 6120, "byteStride" : 20, "target" : 34962}, {"buffer" : 0, "byteOffset" : 125036, "byteLength" : 2280, "byteStride" : 20, "target" : 34962}, {"buffer" : 0, "byteOffset" : 127320, "byteLength" : 600, "byteStride" : 20, "target" : 34962}, {"buffer" : 0, "byteOffset" : 127924, "byteLength" : 2280, "byteStride" : 20, "target" : 34962}, {"buffer" : 0, "byteOffset" : 130208, "byteLength" : 600, "byteStride" : 20, "target" : 34962}, {"buffer" : 0, "byteOffset" : 130812, "byteLength" : 2280, "byteStride" : 20, "target" : 34962}, {"buffer" : 0, "byteOffset" : 133096, "byteLength" : 2280, "byteStride" : 20, "target" : 34962}, {"buffer" : 0, "byteOffset" : 135380, "byteLength" : 4320, "byteStride" : 20, "target" : 34962}, {"buffer" : 0, "byteOffset" : 139704, "byteLength" : 190080, "byteStride" : 20, "target" : 34962}], "materials" : [{"name" : "01 - Default", "pbrMetallicRoughness" : {"baseColorFactor" : [0.7294117647058823, 0.7294117647058823, 0.7294117647058823, 1], "metallicFactor" : 1, "roughnessFactor" : 1}, "emissiveFactor" : [0, 0, 0], "alphaMode" : "OPAQUE", "doubleSided" : false}, {"name" : "01 - Default123", "pbrMetallicRoughness" : {"baseColorFactor" : [0.7294117647058823, 0.7294117647058823, 0.7294117647058823, 1], "metallicFactor" : 1, "roughnessFactor" : 1}, "emissiveFactor" : [0, 0, 0], "alphaMode" : "OPAQUE", "doubleSided" : false}, {"name" : "01 - Default", "pbrMetallicRoughness" : {"baseColorFactor" : [0.7294117647058823, 0.7294117647058823, 0.7294117647058823, 1], "metallicFactor" : 1, "roughnessFactor" : 1}, "emissiveFactor" : [0, 0, 0], "alphaMode" : "OPAQUE", "doubleSided" : false}, {"name" : "01 - Default123", "pbrMetallicRoughness" : {"baseColorFactor" : [0.7294117647058823, 0.7294117647058823, 0.7294117647058823, 1], "metallicFactor" : 1, "roughnessFactor" : 1}, "emissiveFactor" : [0, 0, 0], "alphaMode" : "OPAQUE", "doubleSided" : false}, {"name" : "01 - Default", "pbrMetallicRoughness" : {"baseColorFactor" : [0.7294117647058823, 0.7294117647058823, 0.7294117647058823, 1], "metallicFactor" : 1, "roughnessFactor" : 1}, "emissiveFactor" : [0, 0, 0], "alphaMode" : "OPAQUE", "doubleSided" : false}, {"name" : "01 - Default123", "pbrMetallicRoughness" : {"baseColorFactor" : [0.7294117647058823, 0.7294117647058823, 0.7294117647058823, 1], "metallicFactor" : 1, "roughnessFactor" : 1}, "emissiveFactor" : [0, 0, 0], "alphaMode" : "OPAQUE", "doubleSided" : false}, {"name" : "01 - Default", "pbrMetallicRoughness" : {"baseColorFactor" : [0.7294117647058823, 0.7294117647058823, 0.7294117647058823, 1], "metallicFactor" : 1, "roughnessFactor" : 1}, "emissiveFactor" : [0, 0, 0], "alphaMode" : "OPAQUE", "doubleSided" : false}, {"name" : "01 - Default123", "pbrMetallicRoughness" : {"baseColorFactor" : [0.7294117647058823, 0.7294117647058823, 0.7294117647058823, 1], "metallicFactor" : 1, "roughnessFactor" : 1}, "emissiveFactor" : [0, 0, 0], "alphaMode" : "OPAQUE", "doubleSided" : false}, {"name" : "01 - Default", "pbrMetallicRoughness" : {"baseColorFactor" : [0.7294117647058823, 0.7294117647058823, 0.7294117647058823, 1], "metallicFactor" : 1, "roughnessFactor" : 1}, "emissiveFactor" : [0, 0, 0], "alphaMode" : "OPAQUE", "doubleSided" : false}, {"name" : "01 - Default", "pbrMetallicRoughness" : {"baseColorFactor" : [0.7294117647058823, 0.7294117647058823, 0.7294117647058823, 1], "metallicFactor" : 1, "roughnessFactor" : 1}, "emissiveFactor" : [0, 0, 0], "alphaMode" : "OPAQUE", "doubleSided" : false}, {"name" : "leather_32", "pbrMetallicRoughness" : {"baseColorFactor" : [0.16862745098039217, 0.16862745098039217, 0.16862745098039217, 1], "metallicFactor" : 1, "roughnessFactor" : 1}, "emissiveFactor" : [0, 0, 0], "alphaMode" : "OPAQUE", "doubleSided" : false}, {"name" : "Veludo (velvet)", "pbrMetallicRoughness" : {"baseColorFactor" : [0.7254901960784313, 0, 0, 1], "metallicFactor" : 1, "roughnessFactor" : 1}, "emissiveFactor" : [0, 0, 0], "alphaMode" : "OPAQUE", "doubleSided" : false}], "meshes" : [{"primitives" : [{"attributes" : {"POSITION" : 1, "TEXCOORD_0" : 2}, "indices" : 0, "material" : 0, "mode" : 4}, {"attributes" : {"POSITION" : 4, "TEXCOORD_0" : 5}, "indices" : 3, "material" : 1, "mode" : 4}], "name" : "Line20"}, {"primitives" : [{"attributes" : {"POSITION" : 7, "TEXCOORD_0" : 8}, "indices" : 6, "material" : 2, "mode" : 4}, {"attributes" : {"POSITION" : 10, "TEXCOORD_0" : 11}, "indices" : 9, "material" : 3, "mode" : 4}], "name" : "Line22"}, {"primitives" : [{"attributes" : {"POSITION" : 13, "TEXCOORD_0" : 14}, "indices" : 12, "material" : 4, "mode" : 4}], "name" : "Line24"}, {"primitives" : [{"attributes" : {"POSITION" : 16, "TEXCOORD_0" : 17}, "indices" : 15, "material" : 5, "mode" : 4}], "name" : "Object129"}, {"primitives" : [{"attributes" : {"POSITION" : 19, "TEXCOORD_0" : 20}, "indices" : 18, "material" : 6, "mode" : 4}], "name" : "Line25"}, {"primitives" : [{"attributes" : {"POSITION" : 22, "TEXCOORD_0" : 23}, "indices" : 21, "material" : 7, "mode" : 4}], "name" : "Object128"}, {"primitives" : [{"attributes" : {"POSITION" : 25, "TEXCOORD_0" : 26}, "indices" : 24, "material" : 8, "mode" : 4}], "name" : "Line21"}, {"primitives" : [{"attributes" : {"POSITION" : 28, "TEXCOORD_0" : 29}, "indices" : 27, "material" : 9, "mode" : 4}], "name" : "Line23"}, {"primitives" : [{"attributes" : {"POSITION" : 31, "TEXCOORD_0" : 32}, "indices" : 30, "material" : 10, "mode" : 4}], "name" : "Cylinder36"}, {"primitives" : [{"attributes" : {"POSITION" : 34, "TEXCOORD_0" : 35}, "indices" : 33, "material" : 11, "mode" : 4}], "name" : "Line028"}], "nodes" : [{"matrix" : [-0.32963985204696655, 4.130443511903611E-15, -0.4788077473640442, 0, -1.5448007673057873E-07, 0.5974529385566711, 1.0635331904040868E-07, 0, -0.4921056926250458, -1.8755031305772718E-07, 0.3387949466705322, 0, -156.29295349121094, -213.8281707763672, 83.78897094726562, 1], "mesh" : 0, "name" : "Line20"}, {"matrix" : [-0.3296397030353546, 0, -0.47880783677101135, 0, 2.151062616917443E-08, 0.5974529385566711, -1.4809189430309289E-08, 0, 0.49210578203201294, -2.611549732023377E-08, -0.3387947976589203, 0, 133.74765014648438, -213.8281707763672, -115.89224243164062, 1], "mesh" : 1, "name" : "Line22"}, {"matrix" : [-0.47880762815475464, -1.385946859500109E-07, 0.3296399712562561, 0, -0.03182864934206009, 0.5948104858398438, -0.046231403946876526, 0, -0.31256526708602905, -0.05201301351189613, -0.4540064036846161, 0, -31.789464950561523, -59.837127685546875, 232.3356475830078, 1], "mesh" : 2, "name" : "Line24"}, {"matrix" : [-0.47880759835243225, -1.7324336454294098E-07, 0.3296400010585785, 0, -0.03182864189147949, 0.5948104858398438, -0.04623132199048996, 0, -0.3125653564929962, -0.05201294645667076, -0.4540063738822937, 0, -30.515348434448242, -59.837158203125, 231.4584503173828, 1], "mesh" : 3, "name" : "Object129"}, {"matrix" : [0.4788077771663666, 0, -0.3296397924423218, 0, -0.03182860463857651, 0.5948104858398438, -0.046231627464294434, 0, -0.3125651478767395, -0.05201315879821777, -0.45400652289390564, 0, 228.38172912597656, -59.83709716796875, 53.218318939208984, 1], "mesh" : 4, "name" : "Line25"}, {"matrix" : [-0.4788077771663666, 0, 0.3296397924423218, 0, -1.4809194759379807E-08, 0.5974529385566711, -2.151062261646075E-08, 0, -0.33879488706588745, -2.611549732023377E-08, -0.49210572242736816, 0, -272.6176452636719, -57.80186462402344, -120.19952392578125, 1], "mesh" : 5, "name" : "Object128"}, {"matrix" : [-0.4788077771663666, 0, 0.3296397924423218, 0, -1.4809194759379807E-08, 0.5974529385566711, -2.151062261646075E-08, 0, -0.33879488706588745, -2.611549732023377E-08, -0.49210572242736816, 0, -273.8917541503906, -57.80186462402344, -119.32234191894531, 1], "mesh" : 6, "name" : "Line21"}, {"matrix" : [0.4788077771663666, 0, -0.3296397924423218, 0, -4.040088708023859E-09, 0.5974529385566711, -5.868301844458301E-09, 0, -0.33879488706588745, -7.124555168047664E-09, -0.49210572242736816, 0, -13.720563888549805, -57.80186462402344, -298.439697265625, 1], "mesh" : 7, "name" : "Line23"}, {"matrix" : [0.8236727714538574, 0, -0.567065417766571, 0, 0.567065417766571, -3.2584136988589307E-07, 0.8236727714538574, 0, 1.8477336993782956E-07, 1, 2.6838665689865593E-07, 0, -301.784423828125, -411.38189697265625, -96.92398071289062, 1], "mesh" : 8, "name" : "Cylinder36"}, {"matrix" : [-0.5670653581619263, 0, -0.8236727714538574, 0, 3.600387898927693E-08, 1, -2.478721405907436E-08, 0, 0.8236727714538574, -4.371138828673793E-08, -0.5670653581619263, 0, -140.80545043945312, 136.52703857421875, 166.68699645996094, 1], "mesh" : 9, "name" : "Line028"}], "scene" : 0, "scenes" : [{"nodes" : [0, 1, 2, 3, 4, 5, 6, 7, 8, 9]}]}