{"accessors" : [{"bufferView" : 0, "byteOffset" : 0, "componentType" : 5123, "count" : 5784, "type" : "SCALAR", "max" : [5029], "min" : [0]}, {"bufferView" : 1, "byteOffset" : 0, "componentType" : 5126, "count" : 5030, "type" : "VEC3", "max" : [244.55410766601562, 257.4661865234375, 224.032958984375], "min" : [-244.5540771484375, -257.4661865234375, -224.03294372558594], "name" : "POSITION"}, {"bufferView" : 1, "byteOffset" : 12, "componentType" : 5126, "count" : 5030, "type" : "VEC2", "max" : [1.2222000360488892, 1.2217999696731567], "min" : [-0.22179999947547913, -0.22220003604888916], "name" : "TEXCOORD_0"}, {"bufferView" : 0, "byteOffset" : 11568, "componentType" : 5123, "count" : 25536, "type" : "SCALAR", "max" : [20537], "min" : [0]}, {"bufferView" : 2, "byteOffset" : 0, "componentType" : 5126, "count" : 20538, "type" : "VEC3", "max" : [209.58255004882812, 36.865234375, 210.1544189453125], "min" : [-209.58255004882812, -36.8653564453125, -210.15435791015625], "name" : "POSITION"}, {"bufferView" : 2, "byteOffset" : 12, "componentType" : 5126, "count" : 20538, "type" : "VEC2", "max" : [4.486999988555908, 4.500699996948242], "min" : [-3.504199981689453, -3.4979000091552734], "name" : "TEXCOORD_0"}, {"bufferView" : 0, "byteOffset" : 62640, "componentType" : 5123, "count" : 36, "type" : "SCALAR", "max" : [33], "min" : [0]}, {"bufferView" : 3, "byteOffset" : 0, "componentType" : 5126, "count" : 34, "type" : "VEC3", "max" : [241.51934814453125, 16.590087890625, 5.4310302734375], "min" : [-241.51934814453125, -16.590087890625, -5.43096923828125], "name" : "POSITION"}, {"bufferView" : 3, "byteOffset" : 12, "componentType" : 5126, "count" : 34, "type" : "VEC2", "max" : [6.919600009918213, 0.9182000160217285], "min" : [-5.919600009918213, 0.08050000667572021], "name" : "TEXCOORD_0"}, {"bufferView" : 0, "byteOffset" : 62712, "componentType" : 5123, "count" : 36, "type" : "SCALAR", "max" : [33], "min" : [0]}, {"bufferView" : 4, "byteOffset" : 0, "componentType" : 5126, "count" : 34, "type" : "VEC3", "max" : [208.31149291992188, 32.323486328125, 205.251953125], "min" : [-208.31149291992188, -32.323486328125, -205.251953125], "name" : "POSITION"}, {"bufferView" : 4, "byteOffset" : 12, "componentType" : 5126, "count" : 34, "type" : "VEC2", "max" : [4.469600200653076, 1.3488999605178833], "min" : [-3.469599962234497, -3.469600200653076], "name" : "TEXCOORD_0"}, {"bufferView" : 0, "byteOffset" : 62784, "componentType" : 5123, "count" : 9540, "type" : "SCALAR", "max" : [8027], "min" : [0]}, {"bufferView" : 5, "byteOffset" : 0, "componentType" : 5126, "count" : 8028, "type" : "VEC3", "max" : [222.62728881835938, 230.7515869140625, 4.935546875], "min" : [-222.62728881835938, -230.7515869140625, -4.935546875], "name" : "POSITION"}, {"bufferView" : 5, "byteOffset" : 12, "componentType" : 5126, "count" : 8028, "type" : "VEC2", "max" : [4.5904998779296875, 4.51099967956543], "min" : [-3.591599941253662, -3.535799980163574], "name" : "TEXCOORD_0"}, {"bufferView" : 0, "byteOffset" : 81864, "componentType" : 5123, "count" : 54432, "type" : "SCALAR", "max" : [41895], "min" : [0]}, {"bufferView" : 6, "byteOffset" : 0, "componentType" : 5126, "count" : 41896, "type" : "VEC3", "max" : [246.60595703125, 55.342529296875, 521.0201416015625], "min" : [-246.60592651367188, -55.342529296875, -521.0202026367188], "name" : "POSITION"}, {"bufferView" : 6, "byteOffset" : 12, "componentType" : 5126, "count" : 41896, "type" : "VEC2", "max" : [1.8996000289916992, 0.9976999759674072], "min" : [-0.8999999761581421, -1.9474999904632568], "name" : "TEXCOORD_0"}, {"bufferView" : 0, "byteOffset" : 190728, "componentType" : 5123, "count" : 25536, "type" : "SCALAR", "max" : [20537], "min" : [0]}, {"bufferView" : 7, "byteOffset" : 0, "componentType" : 5126, "count" : 20538, "type" : "VEC3", "max" : [220.9334716796875, 230.5443115234375, 30.545989990234375], "min" : [-220.93344116210938, -230.5443115234375, -30.545989990234375], "name" : "POSITION"}, {"bufferView" : 7, "byteOffset" : 12, "componentType" : 5126, "count" : 20538, "type" : "VEC2", "max" : [4.486999988555908, 4.500699996948242], "min" : [-3.504199981689453, -3.4979000091552734], "name" : "TEXCOORD_0"}], "asset" : {"generator" : "Aspose.3D 24.1.0", "version" : "2.0"}, "buffers" : [{"uri" : "data:application/octet-stream;base64,", "byteLength" : 2659832}], "bufferViews" : [{"buffer" : 0, "byteOffset" : 0, "byteLength" : 241800, "target" : 34963}, {"buffer" : 0, "byteOffset" : 241804, "byteLength" : 115680, "byteStride" : 20, "target" : 34962}, {"buffer" : 0, "byteOffset" : 357488, "byteLength" : 510720, "byteStride" : 20, "target" : 34962}, {"buffer" : 0, "byteOffset" : 868212, "byteLength" : 720, "byteStride" : 20, "target" : 34962}, {"buffer" : 0, "byteOffset" : 868936, "byteLength" : 720, "byteStride" : 20, "target" : 34962}, {"buffer" : 0, "byteOffset" : 869660, "byteLength" : 190800, "byteStride" : 20, "target" : 34962}, {"buffer" : 0, "byteOffset" : 1060464, "byteLength" : 1088640, "byteStride" : 20, "target" : 34962}, {"buffer" : 0, "byteOffset" : 2149108, "byteLength" : 510720, "byteStride" : 20, "target" : 34962}], "materials" : [{"name" : "w  3 ", "pbrMetallicRoughness" : {"baseColorFactor" : [0.7372549019607844, 0.6784313725490196, 0.5019607843137255, 1], "metallicFactor" : 1, "roughnessFactor" : 1}, "emissiveFactor" : [0, 0, 0], "alphaMode" : "OPAQUE", "doubleSided" : false}, {"name" : "w  3 ", "pbrMetallicRoughness" : {"baseColorFactor" : [0.7372549019607844, 0.6784313725490196, 0.5019607843137255, 1], "metallicFactor" : 1, "roughnessFactor" : 1}, "emissiveFactor" : [0, 0, 0], "alphaMode" : "OPAQUE", "doubleSided" : false}, {"name" : "w  3 ", "pbrMetallicRoughness" : {"baseColorFactor" : [0.7372549019607844, 0.6784313725490196, 0.5019607843137255, 1], "metallicFactor" : 1, "roughnessFactor" : 1}, "emissiveFactor" : [0, 0, 0], "alphaMode" : "OPAQUE", "doubleSided" : false}, {"name" : "Leather besh", "pbrMetallicRoughness" : {"baseColorFactor" : [0.996078431372549, 0.9568627450980393, 0.8549019607843137, 1], "metallicFactor" : 1, "roughnessFactor" : 1}, "emissiveFactor" : [0, 0, 0], "alphaMode" : "OPAQUE", "doubleSided" : false}, {"name" : "w  3 ", "pbrMetallicRoughness" : {"baseColorFactor" : [0.7372549019607844, 0.6784313725490196, 0.5019607843137255, 1], "metallicFactor" : 1, "roughnessFactor" : 1}, "emissiveFactor" : [0, 0, 0], "alphaMode" : "OPAQUE", "doubleSided" : false}, {"name" : "w  3 ", "pbrMetallicRoughness" : {"baseColorFactor" : [0.7372549019607844, 0.6784313725490196, 0.5019607843137255, 1], "metallicFactor" : 1, "roughnessFactor" : 1}, "emissiveFactor" : [0, 0, 0], "alphaMode" : "OPAQUE", "doubleSided" : false}, {"name" : "Leather besh", "pbrMetallicRoughness" : {"baseColorFactor" : [0.996078431372549, 0.9568627450980393, 0.8549019607843137, 1], "metallicFactor" : 1, "roughnessFactor" : 1}, "emissiveFactor" : [0, 0, 0], "alphaMode" : "OPAQUE", "doubleSided" : false}], "meshes" : [{"primitives" : [{"attributes" : {"POSITION" : 1, "TEXCOORD_0" : 2}, "indices" : 0, "material" : 0, "mode" : 4}], "name" : "Box68"}, {"primitives" : [{"attributes" : {"POSITION" : 4, "TEXCOORD_0" : 5}, "indices" : 3, "material" : 1, "mode" : 4}], "name" : "Box70"}, {"primitives" : [{"attributes" : {"POSITION" : 7, "TEXCOORD_0" : 8}, "indices" : 6, "material" : 2, "mode" : 4}], "name" : "Box69"}, {"primitives" : [{"attributes" : {"POSITION" : 10, "TEXCOORD_0" : 11}, "indices" : 9, "material" : 3, "mode" : 4}], "name" : "Box71"}, {"primitives" : [{"attributes" : {"POSITION" : 13, "TEXCOORD_0" : 14}, "indices" : 12, "material" : 4, "mode" : 4}], "name" : "Line5843"}, {"primitives" : [{"attributes" : {"POSITION" : 16, "TEXCOORD_0" : 17}, "indices" : 15, "material" : 5, "mode" : 4}], "name" : "Box67"}, {"primitives" : [{"attributes" : {"POSITION" : 19, "TEXCOORD_0" : 20}, "indices" : 18, "material" : 6, "mode" : 4}], "name" : "Box66"}], "nodes" : [{"matrix" : [-1, 0, 0, 0, 0, 0, 1, 0, 0, 1, 0, 0, -0.05298614501953125, 225.48330688476562, 36.021484375, 1], "mesh" : 0, "name" : "Box68"}, {"matrix" : [-1, 0, 0, 0, 0, 0, 1, 0, 0, 1, 0, 0, -1.8487625122070312, 784.8448486328125, -229.08984375, 1], "mesh" : 1, "name" : "Box70"}, {"matrix" : [-1, 0, 0, 0, 0, 0, 1, 0, 0, 1, 0, 0, -0.07593536376953125, 1020.0389404296875, -274.26171875, 1], "mesh" : 2, "name" : "Box69"}, {"matrix" : [-1, 0, 0, 0, 0, 0, 1, 0, 0, 1, 0, 0, -0.34339141845703125, 781.1051025390625, -253.49755859375, 1], "mesh" : 3, "name" : "Box71"}, {"matrix" : [-1, 0, 0, 0, 0, 0, 1, 0, 0, 1, 0, 0, 0.07079315185546875, 452.5968933105469, 35.652099609375, 1], "mesh" : 4, "name" : "Line5843"}, {"matrix" : [-1, 0, 0, 0, 0, 0, 1, 0, 0, 1, 0, 0, -7.62939453125E-06, 523.3995361328125, -238.14501953125, 1], "mesh" : 5, "name" : "Box67"}, {"matrix" : [-1, 0, 0, 0, 0, 0, 1, 0, 0, 1, 0, 0, -1.3383865356445312, 453.3294372558594, 36.590576171875, 1], "mesh" : 6, "name" : "Box66"}], "scene" : 0, "scenes" : [{"nodes" : [0, 1, 2, 3, 4, 5, 6]}]}