{"accessors" : [{"bufferView" : 0, "byteOffset" : 0, "componentType" : 5123, "count" : 1164, "type" : "SCALAR", "max" : [954], "min" : [0]}, {"bufferView" : 1, "byteOffset" : 0, "componentType" : 5126, "count" : 955, "type" : "VEC3", "max" : [7.477749824523926, 3.023049831390381, 0.2856000065803528], "min" : [-7.477749824523926, -3.023049831390381, -0.2856000065803528], "name" : "POSITION"}, {"bufferView" : 1, "byteOffset" : 12, "componentType" : 5126, "count" : 955, "type" : "VEC2", "max" : [3.737499952316284, 4.067600250244141], "min" : [-3.7402000427246094, -1.9528000354766846], "name" : "TEXCOORD_0"}, {"bufferView" : 0, "byteOffset" : 2328, "componentType" : 5123, "count" : 252, "type" : "SCALAR", "max" : [193], "min" : [0]}, {"bufferView" : 2, "byteOffset" : 0, "componentType" : 5126, "count" : 194, "type" : "VEC3", "max" : [7.477749824523926, 0.28804993629455566, 0.20010000467300415], "min" : [-7.477749824523926, -0.28804993629455566, -0.20010000467300415], "name" : "POSITION"}, {"bufferView" : 2, "byteOffset" : 12, "componentType" : 5126, "count" : 194, "type" : "VEC2", "max" : [1.273933186496023E-33, 1], "min" : [1.273933186496023E-33, 1], "name" : "TEXCOORD_0"}, {"bufferView" : 0, "byteOffset" : 2832, "componentType" : 5123, "count" : 36, "type" : "SCALAR", "max" : [27], "min" : [0]}, {"bufferView" : 3, "byteOffset" : 0, "componentType" : 5126, "count" : 28, "type" : "VEC3", "max" : [7.477749824523926, 0.2879500389099121, 0.01590000092983246], "min" : [-7.477749824523926, -0.2879500389099121, -0.01590000092983246], "name" : "POSITION"}, {"bufferView" : 3, "byteOffset" : 12, "componentType" : 5126, "count" : 28, "type" : "VEC2", "max" : [20.401611328125, 1], "min" : [20.401611328125, 1], "name" : "TEXCOORD_0"}, {"bufferView" : 0, "byteOffset" : 2904, "componentType" : 5123, "count" : 324, "type" : "SCALAR", "max" : [254], "min" : [0]}, {"bufferView" : 4, "byteOffset" : 0, "componentType" : 5126, "count" : 255, "type" : "VEC3", "max" : [1.181149959564209, 1.6698999404907227, 1.5211999416351318], "min" : [-1.181149959564209, -1.6698999404907227, -1.5211999416351318], "name" : "POSITION"}, {"bufferView" : 4, "byteOffset" : 12, "componentType" : 5126, "count" : 255, "type" : "VEC2", "max" : [1575.32421875, 1], "min" : [1575.32421875, 1], "name" : "TEXCOORD_0"}, {"bufferView" : 0, "byteOffset" : 3552, "componentType" : 5123, "count" : 96, "type" : "SCALAR", "max" : [77], "min" : [0]}, {"bufferView" : 5, "byteOffset" : 0, "componentType" : 5126, "count" : 78, "type" : "VEC3", "max" : [10.148449897766113, -4.9948692321777344E-05, 5.715000152587891], "min" : [-10.148449897766113, -4.9948692321777344E-05, -5.714999198913574], "name" : "POSITION"}, {"bufferView" : 5, "byteOffset" : 12, "componentType" : 5126, "count" : 78, "type" : "VEC2", "max" : [0.9995004534721375, 0.9995003938674927], "min" : [0.0004995465278625488, 0.0004995465278625488], "name" : "TEXCOORD_0"}, {"bufferView" : 0, "byteOffset" : 3744, "componentType" : 5123, "count" : 5028, "type" : "SCALAR", "max" : [3962], "min" : [0]}, {"bufferView" : 6, "byteOffset" : 0, "componentType" : 5126, "count" : 3963, "type" : "VEC3", "max" : [0.8366501331329346, 0.04135000705718994, 0.09890007972717285], "min" : [-0.8366501331329346, -0.04135000705718994, -0.09890007972717285], "name" : "POSITION"}, {"bufferView" : 6, "byteOffset" : 12, "componentType" : 5126, "count" : 3963, "type" : "VEC2", "max" : [1.1067399441344605E-08, 1], "min" : [1.1067399441344605E-08, 1], "name" : "TEXCOORD_0"}, {"bufferView" : 0, "byteOffset" : 13800, "componentType" : 5123, "count" : 6480, "type" : "SCALAR", "max" : [5086], "min" : [0]}, {"bufferView" : 7, "byteOffset" : 0, "componentType" : 5126, "count" : 5087, "type" : "VEC3", "max" : [0.8309497833251953, 0.07264995574951172, 0.10030001401901245], "min" : [-0.8309497833251953, -0.07264995574951172, -0.10029998421669006], "name" : "POSITION"}, {"bufferView" : 7, "byteOffset" : 12, "componentType" : 5126, "count" : 5087, "type" : "VEC2", "max" : [8284979200, 1], "min" : [8284979200, 1], "name" : "TEXCOORD_0"}, {"bufferView" : 0, "byteOffset" : 26760, "componentType" : 5123, "count" : 540, "type" : "SCALAR", "max" : [473], "min" : [0]}, {"bufferView" : 8, "byteOffset" : 0, "componentType" : 5126, "count" : 474, "type" : "VEC3", "max" : [10.374300003051758, 0.32660001516342163, 5.9053497314453125], "min" : [-10.374300003051758, -0.32659995555877686, -5.905350685119629], "name" : "POSITION"}, {"bufferView" : 8, "byteOffset" : 12, "componentType" : 5126, "count" : 474, "type" : "VEC2", "max" : [20.581199645996094, 1.0068999528884888], "min" : [-19.74799919128418, -10.809800148010254], "name" : "TEXCOORD_0"}, {"bufferView" : 0, "byteOffset" : 27840, "componentType" : 5123, "count" : 540, "type" : "SCALAR", "max" : [444], "min" : [0]}, {"bufferView" : 9, "byteOffset" : 0, "componentType" : 5126, "count" : 445, "type" : "VEC3", "max" : [10.324450492858887, 0.0587000846862793, 5.790800094604492], "min" : [-10.324450492858887, -0.058699965476989746, -5.790799617767334], "name" : "POSITION"}, {"bufferView" : 9, "byteOffset" : 12, "componentType" : 5126, "count" : 445, "type" : "VEC2", "max" : [20.74799919128418, 1], "min" : [0, -10.809800148010254], "name" : "TEXCOORD_0"}, {"bufferView" : 0, "byteOffset" : 28920, "componentType" : 5123, "count" : 5355, "type" : "SCALAR", "max" : [4313], "min" : [0]}, {"bufferView" : 10, "byteOffset" : 0, "componentType" : 5126, "count" : 4314, "type" : "VEC3", "max" : [10.371950149536133, 0.34299999475479126, 5.9076995849609375], "min" : [-10.371950149536133, -0.34299999475479126, -5.907700538635254], "name" : "POSITION"}, {"bufferView" : 10, "byteOffset" : 12, "componentType" : 5126, "count" : 4314, "type" : "VEC2", "max" : [20.861299514770508, 1.079699993133545], "min" : [-9.371899604797363, -11.034799575805664], "name" : "TEXCOORD_0"}, {"bufferView" : 0, "byteOffset" : 39632, "componentType" : 5123, "count" : 660, "type" : "SCALAR", "max" : [601], "min" : [0]}, {"bufferView" : 11, "byteOffset" : 0, "componentType" : 5126, "count" : 602, "type" : "VEC3", "max" : [1.8042500019073486, 0.13419997692108154, 2.4337000846862793], "min" : [-1.8042500019073486, -0.13420000672340393, -2.4337003231048584], "name" : "POSITION"}, {"bufferView" : 11, "byteOffset" : 12, "componentType" : 5126, "count" : 602, "type" : "VEC2", "max" : [3.543299913406372, 1.0223000049591064], "min" : [-2.476300001144409, -3.746699810028076], "name" : "TEXCOORD_0"}, {"bufferView" : 0, "byteOffset" : 40952, "componentType" : 5123, "count" : 36, "type" : "SCALAR", "max" : [33], "min" : [0]}, {"bufferView" : 12, "byteOffset" : 0, "componentType" : 5126, "count" : 34, "type" : "VEC3", "max" : [1.7716498374938965, 0.28185001015663147, 0.8858499526977539], "min" : [-1.7716498374938965, -0.2818499803543091, -0.8858499526977539], "name" : "POSITION"}, {"bufferView" : 12, "byteOffset" : 12, "componentType" : 5126, "count" : 34, "type" : "VEC2", "max" : [2.271699905395508, 2.8726000785827637], "min" : [-1.2717000246047974, 0.23589998483657837], "name" : "TEXCOORD_0"}, {"bufferView" : 0, "byteOffset" : 41024, "componentType" : 5123, "count" : 648, "type" : "SCALAR", "max" : [594], "min" : [0]}, {"bufferView" : 13, "byteOffset" : 0, "componentType" : 5126, "count" : 595, "type" : "VEC3", "max" : [1.755849838256836, 0.13419999182224274, 0.8067002296447754], "min" : [-1.755849838256836, -0.13420000672340393, -0.8067002296447754], "name" : "POSITION"}, {"bufferView" : 13, "byteOffset" : 12, "componentType" : 5126, "count" : 595, "type" : "VEC2", "max" : [2.2558000087738037, 0.46869999170303345], "min" : [-1.2558000087738037, -1.8726000785827637], "name" : "TEXCOORD_0"}, {"bufferView" : 0, "byteOffset" : 42320, "componentType" : 5123, "count" : 60, "type" : "SCALAR", "max" : [54], "min" : [0]}, {"bufferView" : 14, "byteOffset" : 0, "componentType" : 5126, "count" : 55, "type" : "VEC3", "max" : [1.7716498374938965, 0.28185001015663147, 0.7494997978210449], "min" : [-1.7716498374938965, -0.2818499803543091, -0.7495002746582031], "name" : "POSITION"}, {"bufferView" : 14, "byteOffset" : 12, "componentType" : 5126, "count" : 55, "type" : "VEC2", "max" : [0.9995005130767822, 0.9995005130767822], "min" : [0.0004994869232177734, 0.0004994869232177734], "name" : "TEXCOORD_0"}, {"bufferView" : 0, "byteOffset" : 42440, "componentType" : 5123, "count" : 1650, "type" : "SCALAR", "max" : [1378], "min" : [0]}, {"bufferView" : 15, "byteOffset" : 0, "componentType" : 5126, "count" : 1379, "type" : "VEC3", "max" : [0.5090503692626953, 0.0307999849319458, 0.5095500946044922], "min" : [-0.5090503692626953, -0.0307999849319458, -0.5095498561859131], "name" : "POSITION"}, {"bufferView" : 15, "byteOffset" : 12, "componentType" : 5126, "count" : 1379, "type" : "VEC2", "max" : [1.0026999711990356, 1.0095000267028809], "min" : [-0.0027000000700354576, -0.00950002670288086], "name" : "TEXCOORD_0"}], "asset" : {"generator" : "Aspose.3D 24.1.0", "version" : "2.0"}, "buffers" : [{"uri" : "data:application/octet-stream;base64,", "byteLength" : 503184}], "bufferViews" : [{"buffer" : 0, "byteOffset" : 0, "byteLength" : 45740, "target" : 34963}, {"buffer" : 0, "byteOffset" : 45744, "byteLength" : 23280, "byteStride" : 20, "target" : 34962}, {"buffer" : 0, "byteOffset" : 69028, "byteLength" : 5040, "byteStride" : 20, "target" : 34962}, {"buffer" : 0, "byteOffset" : 74072, "byteLength" : 720, "byteStride" : 20, "target" : 34962}, {"buffer" : 0, "byteOffset" : 74796, "byteLength" : 6480, "byteStride" : 20, "target" : 34962}, {"buffer" : 0, "byteOffset" : 81280, "byteLength" : 1920, "byteStride" : 20, "target" : 34962}, {"buffer" : 0, "byteOffset" : 83204, "byteLength" : 100560, "byteStride" : 20, "target" : 34962}, {"buffer" : 0, "byteOffset" : 183768, "byteLength" : 129600, "byteStride" : 20, "target" : 34962}, {"buffer" : 0, "byteOffset" : 313372, "byteLength" : 10800, "byteStride" : 20, "target" : 34962}, {"buffer" : 0, "byteOffset" : 324176, "byteLength" : 10800, "byteStride" : 20, "target" : 34962}, {"buffer" : 0, "byteOffset" : 334980, "byteLength" : 107100, "byteStride" : 20, "target" : 34962}, {"buffer" : 0, "byteOffset" : 442084, "byteLength" : 13200, "byteStride" : 20, "target" : 34962}, {"buffer" : 0, "byteOffset" : 455288, "byteLength" : 720, "byteStride" : 20, "target" : 34962}, {"buffer" : 0, "byteOffset" : 456012, "byteLength" : 12960, "byteStride" : 20, "target" : 34962}, {"buffer" : 0, "byteOffset" : 468976, "byteLength" : 1200, "byteStride" : 20, "target" : 34962}, {"buffer" : 0, "byteOffset" : 470180, "byteLength" : 33000, "byteStride" : 20, "target" : 34962}], "images" : [{"uri" : "OCRA_GRE.JPG"}, {"uri" : "SCREEN.JPG"}, {"uri" : "OCRA_BLK.JPG"}, {"uri" : "LABEL.JPG"}], "materials" : [{"name" : "st grey", "pbrMetallicRoughness" : {"baseColorFactor" : [1, 1, 1, 1], "baseColorTexture" : {"index" : 0, "texCoord" : 0}, "metallicFactor" : 1, "roughnessFactor" : 1}, "emissiveFactor" : [0, 0, 0], "alphaMode" : "OPAQUE", "doubleSided" : false}, {"name" : "st grey", "pbrMetallicRoughness" : {"baseColorFactor" : [1, 1, 1, 1], "baseColorTexture" : {"index" : 0, "texCoord" : 0}, "metallicFactor" : 1, "roughnessFactor" : 1}, "emissiveFactor" : [0, 0, 0], "alphaMode" : "OPAQUE", "doubleSided" : false}, {"name" : "st grey", "pbrMetallicRoughness" : {"baseColorFactor" : [1, 1, 1, 1], "baseColorTexture" : {"index" : 0, "texCoord" : 0}, "metallicFactor" : 1, "roughnessFactor" : 1}, "emissiveFactor" : [0, 0, 0], "alphaMode" : "OPAQUE", "doubleSided" : false}, {"name" : "st grey", "pbrMetallicRoughness" : {"baseColorFactor" : [1, 1, 1, 1], "baseColorTexture" : {"index" : 0, "texCoord" : 0}, "metallicFactor" : 1, "roughnessFactor" : 1}, "emissiveFactor" : [0, 0, 0], "alphaMode" : "OPAQUE", "doubleSided" : false}, {"name" : "st blue", "pbrMetallicRoughness" : {"baseColorFactor" : [1, 1, 1, 1], "baseColorTexture" : {"index" : 1, "texCoord" : 0}, "metallicFactor" : 1, "roughnessFactor" : 1}, "emissiveFactor" : [0, 0, 0], "alphaMode" : "OPAQUE", "doubleSided" : false}, {"name" : "black st", "pbrMetallicRoughness" : {"baseColorFactor" : [1, 1, 1, 1], "baseColorTexture" : {"index" : 2, "texCoord" : 0}, "metallicFactor" : 1, "roughnessFactor" : 1}, "emissiveFactor" : [0, 0, 0], "alphaMode" : "OPAQUE", "doubleSided" : false}, {"name" : "black st", "pbrMetallicRoughness" : {"baseColorFactor" : [1, 1, 1, 1], "baseColorTexture" : {"index" : 2, "texCoord" : 0}, "metallicFactor" : 1, "roughnessFactor" : 1}, "emissiveFactor" : [0, 0, 0], "alphaMode" : "OPAQUE", "doubleSided" : false}, {"name" : "st grey", "pbrMetallicRoughness" : {"baseColorFactor" : [1, 1, 1, 1], "baseColorTexture" : {"index" : 0, "texCoord" : 0}, "metallicFactor" : 1, "roughnessFactor" : 1}, "emissiveFactor" : [0, 0, 0], "alphaMode" : "OPAQUE", "doubleSided" : false}, {"name" : "st grey", "pbrMetallicRoughness" : {"baseColorFactor" : [1, 1, 1, 1], "baseColorTexture" : {"index" : 0, "texCoord" : 0}, "metallicFactor" : 1, "roughnessFactor" : 1}, "emissiveFactor" : [0, 0, 0], "alphaMode" : "OPAQUE", "doubleSided" : false}, {"name" : "st grey", "pbrMetallicRoughness" : {"baseColorFactor" : [1, 1, 1, 1], "baseColorTexture" : {"index" : 0, "texCoord" : 0}, "metallicFactor" : 1, "roughnessFactor" : 1}, "emissiveFactor" : [0, 0, 0], "alphaMode" : "OPAQUE", "doubleSided" : false}, {"name" : "st grey", "pbrMetallicRoughness" : {"baseColorFactor" : [1, 1, 1, 1], "baseColorTexture" : {"index" : 0, "texCoord" : 0}, "metallicFactor" : 1, "roughnessFactor" : 1}, "emissiveFactor" : [0, 0, 0], "alphaMode" : "OPAQUE", "doubleSided" : false}, {"name" : "st grey", "pbrMetallicRoughness" : {"baseColorFactor" : [1, 1, 1, 1], "baseColorTexture" : {"index" : 0, "texCoord" : 0}, "metallicFactor" : 1, "roughnessFactor" : 1}, "emissiveFactor" : [0, 0, 0], "alphaMode" : "OPAQUE", "doubleSided" : false}, {"name" : "st grey", "pbrMetallicRoughness" : {"baseColorFactor" : [1, 1, 1, 1], "baseColorTexture" : {"index" : 0, "texCoord" : 0}, "metallicFactor" : 1, "roughnessFactor" : 1}, "emissiveFactor" : [0, 0, 0], "alphaMode" : "OPAQUE", "doubleSided" : false}, {"name" : "st tile", "pbrMetallicRoughness" : {"baseColorFactor" : [1, 1, 1, 1], "baseColorTexture" : {"index" : 3, "texCoord" : 0}, "metallicFactor" : 1, "roughnessFactor" : 1}, "emissiveFactor" : [0, 0, 0], "alphaMode" : "OPAQUE", "doubleSided" : false}, {"name" : "st grey", "pbrMetallicRoughness" : {"baseColorFactor" : [1, 1, 1, 1], "baseColorTexture" : {"index" : 0, "texCoord" : 0}, "metallicFactor" : 1, "roughnessFactor" : 1}, "emissiveFactor" : [0, 0, 0], "alphaMode" : "OPAQUE", "doubleSided" : false}], "meshes" : [{"primitives" : [{"attributes" : {"POSITION" : 1, "TEXCOORD_0" : 2}, "indices" : 0, "material" : 0, "mode" : 4}], "name" : "Rectangle0"}, {"primitives" : [{"attributes" : {"POSITION" : 4, "TEXCOORD_0" : 5}, "indices" : 3, "material" : 1, "mode" : 4}], "name" : "Line001"}, {"primitives" : [{"attributes" : {"POSITION" : 7, "TEXCOORD_0" : 8}, "indices" : 6, "material" : 2, "mode" : 4}], "name" : "Line002"}, {"primitives" : [{"attributes" : {"POSITION" : 10, "TEXCOORD_0" : 11}, "indices" : 9, "material" : 3, "mode" : 4}], "name" : "Line003"}, {"primitives" : [{"attributes" : {"POSITION" : 13, "TEXCOORD_0" : 14}, "indices" : 12, "material" : 4, "mode" : 4}], "name" : "Plane001"}, {"primitives" : [{"attributes" : {"POSITION" : 16, "TEXCOORD_0" : 17}, "indices" : 15, "material" : 5, "mode" : 4}], "name" : "Text002"}, {"primitives" : [{"attributes" : {"POSITION" : 19, "TEXCOORD_0" : 20}, "indices" : 18, "material" : 6, "mode" : 4}], "name" : "Text003"}, {"primitives" : [{"attributes" : {"POSITION" : 22, "TEXCOORD_0" : 23}, "indices" : 21, "material" : 7, "mode" : 4}], "name" : "Box002"}, {"primitives" : [{"attributes" : {"POSITION" : 25, "TEXCOORD_0" : 26}, "indices" : 24, "material" : 8, "mode" : 4}], "name" : "Object"}, {"primitives" : [{"attributes" : {"POSITION" : 28, "TEXCOORD_0" : 29}, "indices" : 27, "material" : 9, "mode" : 4}], "name" : "Box004"}, {"primitives" : [{"attributes" : {"POSITION" : 31, "TEXCOORD_0" : 32}, "indices" : 30, "material" : 10, "mode" : 4}], "name" : "Box006"}, {"primitives" : [{"attributes" : {"POSITION" : 34, "TEXCOORD_0" : 35}, "indices" : 33, "material" : 11, "mode" : 4}], "name" : "Box007"}, {"primitives" : [{"attributes" : {"POSITION" : 37, "TEXCOORD_0" : 38}, "indices" : 36, "material" : 12, "mode" : 4}], "name" : "Box008"}, {"primitives" : [{"attributes" : {"POSITION" : 40, "TEXCOORD_0" : 41}, "indices" : 39, "material" : 13, "mode" : 4}], "name" : "Box009"}, {"primitives" : [{"attributes" : {"POSITION" : 43, "TEXCOORD_0" : 44}, "indices" : 42, "material" : 14, "mode" : 4}], "name" : "Object002"}], "nodes" : [{"matrix" : [-1, 0, 0, 0, 0, 0, 1, 0, 0, 1, 0, 0, -0.03435450792312622, 0.4134840965270996, 0.28826904296875, 1], "mesh" : 0, "name" : "Rectangle0"}, {"matrix" : [-1, 0, 0, 0, 0, 0, 1, 0, 0, 1, 0, 0, -0.03435450792312622, 0.36048364639282227, -3.02325439453125, 1], "mesh" : 1, "name" : "Line001"}, {"matrix" : [-1, 0, 0, 0, 0, 0, 1, 0, 0, 1, 0, 0, -0.03435450792312622, 0.14418363571166992, -3.02276611328125, 1], "mesh" : 2, "name" : "Line002"}, {"matrix" : [-1, 0, 0, 0, 0, 0, 1, 0, 0, 1, 0, 0, -0.03165370225906372, 2.221283435821533, 1.225494384765625, 1], "mesh" : 3, "name" : "Line003"}, {"matrix" : [-1, 0, 0, 0, 0, 0, 1, 0, 0, 1, 0, 0, -0.03165370225906372, 9.415382385253906, -1.1512451171875, 1], "mesh" : 4, "name" : "Plane001"}, {"matrix" : [-1, 0, 0, 0, 0, 0, 1, 0, 0, 1, 0, 0, -0.03435450792312622, 3.8920836448669434, -1.255126953125, 1], "mesh" : 5, "name" : "Text002"}, {"matrix" : [-1, 0, 0, 0, 0, 0, 1, 0, 0, 1, 0, 0, -6.535153865814209, 0.29708337783813477, -3.2044677734375, 1], "mesh" : 6, "name" : "Text003"}, {"matrix" : [-1, 0, 0, 0, 0, 0, 1, 0, 0, 1, 0, 0, -0.03190356492996216, 9.477535247802734, -0.9398193359375, 1], "mesh" : 7, "name" : "Box002"}, {"matrix" : [-1, 0, 0, 0, 0, 0, 1, 0, 0, 1, 0, 0, -0.03165370225906372, 9.477983474731445, -1.20941162109375, 1], "mesh" : 8, "name" : "Object"}, {"matrix" : [-1, 0, 0, 0, 0, 0, 1, 0, 0, 1, 0, 0, -0.03195315599441528, 9.478084564208984, -0.28271484375, 1], "mesh" : 9, "name" : "Box004"}, {"matrix" : [-1, 0, 0, 0, 0, 0, 1, 0, 0, 1, 0, 0, -0.03165370225906372, 6.357384204864502, -0.044403076171875, 1], "mesh" : 10, "name" : "Box006"}, {"matrix" : [-1, 0, 0, 0, 0, 0, 1, 0, 0, 1, 0, 0, -0.03165370225906372, 6.22753381729126, -0.23974609375, 1], "mesh" : 11, "name" : "Box007"}, {"matrix" : [-1, 0, 0, 0, 0, 0, 1, 0, 0, 1, 0, 0, -0.03165370225906372, 7.920083522796631, -0.04071044921875, 1], "mesh" : 12, "name" : "Box008"}, {"matrix" : [-1, 0, 0, 0, 0, 0, 1, 0, 0, 1, 0, 0, -0.03165370225906372, 4.592183589935303, -0.23974609375, 1], "mesh" : 13, "name" : "Box009"}, {"matrix" : [-1, 0, 0, 0, 0, 0, 1, 0, 0, 1, 0, 0, -9.53515338897705, 4.316032886505127, -0.4569091796875, 1], "mesh" : 14, "name" : "Object002"}], "samplers" : [{"magFilter" : 9729, "minFilter" : 9729, "wrapS" : 10497, "wrapT" : 10497}, {"magFilter" : 9729, "minFilter" : 9729, "wrapS" : 10497, "wrapT" : 10497}, {"magFilter" : 9729, "minFilter" : 9729, "wrapS" : 10497, "wrapT" : 10497}, {"magFilter" : 9729, "minFilter" : 9729, "wrapS" : 10497, "wrapT" : 10497}], "scene" : 0, "scenes" : [{"nodes" : [0, 1, 2, 3, 4, 5, 6, 7, 8, 9, 10, 11, 12, 13, 14]}], "textures" : [{"sampler" : 0, "source" : 0, "name" : ""}, {"sampler" : 1, "source" : 1, "name" : ""}, {"sampler" : 2, "source" : 2, "name" : ""}, {"sampler" : 3, "source" : 3, "name" : ""}]}